<svg xmlns="http://www.w3.org/2000/svg" viewBox="0 0 64 64" width="64" height="64">
  <defs>
    <linearGradient id="shield-grad" x1="0%" y1="0%" x2="100%" y2="100%">
      <stop offset="0%" stop-color="#6366f1"/>
      <stop offset="100%" stop-color="#8b5cf6"/>
    </linearGradient>
    <linearGradient id="scan-line" x1="0%" y1="0%" x2="100%" y2="0%">
      <stop offset="0%" stop-color="#6366f1" stop-opacity="0"/>
      <stop offset="50%" stop-color="#6366f1"/>
      <stop offset="100%" stop-color="#6366f1" stop-opacity="0"/>
    </linearGradient>
  </defs>
  <!-- Shield base -->
  <path d="M32 4 L56 14 L56 30 C56 44 44 54 32 60 C20 54 8 44 8 30 L8 14 Z" fill="url(#shield-grad)"/>
  <!-- Shield inner highlight -->
  <path d="M32 10 L50 18 L50 30 C50 40 41 48 32 52 C23 48 14 40 14 30 L14 18 Z" fill="#0a0a0f" fill-opacity="0.3"/>
  <!-- T letterform / scan target -->
  <rect x="24" y="20" width="16" height="3" rx="1" fill="#fff"/>
  <rect x="30" y="23" width="4" height="18" rx="1" fill="#fff"/>
  <!-- Scan line effect -->
  <rect x="18" y="36" width="28" height="2" rx="1" fill="url(#scan-line)" opacity="0.8"/>
  <rect x="22" y="42" width="20" height="1.5" rx="0.75" fill="url(#scan-line)" opacity="0.5"/>
</svg>